<svg width="201" height="201" viewBox="0 0 201 201" fill="none" xmlns="http://www.w3.org/2000/svg">
<path d="M171.564 29.4358C155.883 13.7547 135.456 3.70054 113.465 0.839744C91.4736 -2.02105 69.1538 2.47216 49.9827 13.6193C30.8115 24.7665 15.8657 41.9417 7.47374 62.4689C-0.918224 82.9961 -2.28505 105.723 3.58622 127.108C9.45748 148.493 22.2371 167.335 39.9341 180.7C57.631 194.064 79.2514 201.2 101.427 200.996C123.602 200.791 145.087 193.258 162.535 179.569C179.982 165.88 192.412 146.805 197.888 125.316L168.686 117.875C164.852 132.921 156.15 146.276 143.934 155.86C131.718 165.445 116.675 170.719 101.149 170.862C85.6228 171.005 70.4852 166.009 58.0947 156.652C45.7041 147.295 36.7564 134.102 32.6457 119.129C28.5349 104.157 29.4919 88.2446 35.3675 73.8725C41.2432 59.5003 51.7075 47.4751 65.1302 39.6704C78.5529 31.8656 94.1802 28.7197 109.577 30.7227C124.974 32.7257 139.277 39.7651 150.256 50.7443L171.564 29.4358Z" fill="url(#paint0_linear_947_1114)"/>
<path d="M33.0648 25.9832C45.8663 14.3983 61.4364 6.30673 78.2741 2.48848C95.1118 -1.32978 112.649 -0.745909 129.196 4.1838C145.742 9.11351 160.74 18.2228 172.742 30.6335C184.745 43.0442 193.348 58.3377 197.722 75.0396L168.57 82.6739C165.507 70.98 159.484 60.2722 151.08 51.5828C142.677 42.8935 132.176 36.5156 120.591 33.0641C109.006 29.6125 96.7274 29.2037 84.9385 31.8771C73.1496 34.5504 62.2481 40.2158 53.2852 48.327L33.0648 25.9832Z" fill="#1C24DE" fill-opacity="0.2"/>
<defs>
<linearGradient id="paint0_linear_947_1114" x1="100.5" y1="0" x2="100.5" y2="201" gradientUnits="userSpaceOnUse">
<stop offset="0.57" stop-color="#2BCE9D"/>
<stop offset="0.5701" stop-color="#16684F"/>
</linearGradient>
</defs>
</svg>
