<svg width="27" height="20" viewBox="0 0 27 20" fill="none" xmlns="http://www.w3.org/2000/svg">
<path fill-rule="evenodd" clip-rule="evenodd" d="M0 2.72727C0 2.00396 0.284463 1.31026 0.790812 0.7988C1.29716 0.287337 1.98392 0 2.7 0H24.3C25.0161 0 25.7028 0.287337 26.2092 0.7988C26.7155 1.31026 27 2.00396 27 2.72727V17.2727C27 17.996 26.7155 18.6897 26.2092 19.2012C25.7028 19.7127 25.0161 20 24.3 20H2.7C1.98392 20 1.29716 19.7127 0.790812 19.2012C0.284463 18.6897 0 17.996 0 17.2727L0 2.72727ZM5.4 7.27273C5.4 6.3083 5.77928 5.38338 6.45442 4.70143C7.12955 4.01948 8.04522 3.63636 9 3.63636C9.95478 3.63636 10.8705 4.01948 11.5456 4.70143C12.2207 5.38338 12.6 6.3083 12.6 7.27273C12.6 8.23715 12.2207 9.16208 11.5456 9.84402C10.8705 10.526 9.95478 10.9091 9 10.9091C8.04522 10.9091 7.12955 10.526 6.45442 9.84402C5.77928 9.16208 5.4 8.23715 5.4 7.27273ZM21.6 7.27273H16.2V5.45455H21.6V7.27273ZM21.6 12.7273H16.2V10.9091H21.6V12.7273ZM9 12.7273C8.02156 12.7273 7.06244 13.0025 6.23012 13.5221C5.39781 14.0417 4.72518 14.7851 4.2876 15.6691L3.6936 16.8655C3.62477 17.0042 3.59225 17.1584 3.59913 17.3134C3.60601 17.4685 3.65206 17.6191 3.7329 17.7511C3.81374 17.883 3.92667 17.9919 4.06095 18.0673C4.19522 18.1427 4.34637 18.1821 4.5 18.1818H13.5C13.6535 18.1818 13.8044 18.1422 13.9384 18.0666C14.0725 17.9911 14.1851 17.8822 14.2658 17.7503C14.3464 17.6184 14.3923 17.4679 14.3991 17.313C14.4059 17.1581 14.3734 17.0041 14.3046 16.8655L13.7124 15.6691C13.2748 14.7851 12.6022 14.0417 11.7699 13.5221C10.9376 13.0025 9.97844 12.7273 9 12.7273Z" fill="black"/>
</svg>
