<svg width="26" height="28" viewBox="0 0 26 28" fill="none" xmlns="http://www.w3.org/2000/svg">
<path d="M5.2 22.9091H11.7V28L8.45 26.0909L5.2 28V22.9091ZM23.4 0H13V28L16.25 26.0909L19.5 28V25.4545H23.4C24.0896 25.4545 24.7509 25.1864 25.2385 24.709C25.7261 24.2316 26 23.5842 26 22.9091V2.54545C26 1.87036 25.7261 1.22291 25.2385 0.745546C24.7509 0.268181 24.0896 0 23.4 0ZM15.6 5.09091H18.2V7.63636H15.6V5.09091ZM15.6 11.4545H18.2V14H15.6V11.4545ZM15.6 17.8182H18.2V20.3636H15.6V17.8182ZM2.6 0C1.91107 0.00201438 1.25094 0.270842 0.763795 0.747772C0.276646 1.2247 0.00205754 1.87098 0 2.54545V22.9091C0.00205754 23.5836 0.276646 24.2298 0.763795 24.7068C1.25094 25.1837 1.91107 25.4525 2.6 25.4545V2.54545H11.7V0H2.6Z" fill="black"/>
</svg>
